{"title":"Pyaar Ka Punchnama(2011) Hindi 1CD DVDSCR-=MTR=-","uid":6431311,"size":689421208,"categoryP":"video","categoryS":"movies","magnet":"?xt=urn:btih:dec2c6cdff663c1dc7be802e49322822f903cced&amp;dn=Pyaar+Ka+Punchnama%282011%29+Hindi+1CD+DVDSCR-%3DMTR%3D-&amp;tr=udp%3A%2F%2Ftracker.openbittorrent.com%3A80&amp;tr=udp%3A%2F%2Fopen.demonii.com%3A1337&amp;tr=udp%3A%2F%2Ftracker.coppersurfer.tk%3A6969&amp;tr=udp%3A%2F%2Fexodus.desync.com%3A6969","seeders":1,"leechers":0,"uploader":"HDvideos","files":3,"time":1306661638,"description":"Pyaar Ka Punchnama(2011) Hindi 1CD DVDSCR-=MTR=-\n &lt;a href=&quot;\nhttp://mixxpoint.com/wp-content/uploads/2011/04/Pyaar-Ka-Punchnama.jpg&quot; rel=&quot;nofollow&quot; target=&quot;_NEW&quot;&gt;\nhttp://mixxpoint.com/wp-content/uploads/2011/04/Pyaar-Ka-Punchnama.jpg&lt;/a&gt;\n\nCheck out MY latest Uploads:\n &lt;a href=&quot;\nhttp://thepiratebay.se/user/HDvideos/0/7&quot; rel=&quot;nofollow&quot; target=&quot;_NEW&quot;&gt;\nhttp://thepiratebay.se/user/HDvideos/0/7&lt;/a&gt;\n\nStay updated with us....\n\nSeed after downloading....\n\nEnjoY with HDvideos..\n\nTorrent From Mastitorrents\n\nTeam Mastitorrents\n\nSay thanks if u like my posts\n\nGive ur valuable feedbacks\n\nQuality Uploads from HDvideos\n\nFormat : AVI\nFormat/Info : Audio Video Interleave\nFile size : 657 MiB\nDuration : 2h 20mn\nOverall bit rate : 653 Kbps\n\nVideo\nFormat : MPEG-4 Visual\nFormat profile : Simple****************L3\nFormat settings, BVOP : No\nFormat settings, QPel : No\nFormat settings, GMC : No warppoints\nFormat settings, Matrix : Default\nCodec ID : XVID\nCodec ID/Hint : XviD\nDuration : 2h 20mn\nBit rate : 519 Kbps\nWidth : 608 pixels\nHeight : 272 pixels\nDisplay aspect ratio : 2.25\nFrame rate : 25.000 fps\nResolution : 24 bits\nColorimetry : 4:2:0\nScan type : Progressive\nBits/(Pixel*Frame) : 0.125\nStream size : 522 MiB (79%)\nWriting library : ZJMedia MPEG Encoder\n\nAudio\nFormat : MPEG Audio\nFormat version : Version 1\nFormat profile : Layer 3\nCodec ID : 55\nCodec ID/Hint : MP3\nDuration : 2h 20mn\nBit rate mode : Constant\nBit rate : 128 Kbps\nChannel(s) : 2 channels\nSampling rate : 44.1 KHz\nResolution : 16 bits\nStream size : 129 MiB (20%)\nAlignment : Split accross interleaves\nInterleave, duration : 1000 ms (25.00 video frames)\nLanguage : Hindi\n\nINFO::\n\nMovie Information:\n\nDirector:Luv Ranjan\nWriters:Luv Ranjan (story), Luv Ranjan\nStars:Raayo Bakhirta, Nushrat Bharucha and Sonalli Sehgal\n\nIMDB LINK:http://www.imdb.com/title/tt1926313/\n","torrent":{"xt":"urn:btih:dec2c6cdff663c1dc7be802e49322822f903cced","amp;dn":"Pyaar+Ka+Punchnama%282011%29+Hindi+1CD+DVDSCR-%3DMTR%3D-","amp;tr":["udp%3A%2F%2Ftracker.openbittorrent.com%3A80","udp%3A%2F%2Fopen.demonii.com%3A1337","udp%3A%2F%2Ftracker.coppersurfer.tk%3A6969","udp%3A%2F%2Fexodus.desync.com%3A6969"],"infoHash":"dec2c6cdff663c1dc7be802e49322822f903cced","infoHashBuffer":{"type":"Buffer","data":[222,194,198,205,255,102,60,29,199,190,128,46,73,50,40,34,249,3,204,237]},"announce":[],"urlList":[]}}